<svg xmlns="http://www.w3.org/2000/svg" viewBox="0 0 64 64" fill="none">
  <path d="M32 4L56 18V46L32 60L8 46V18L32 4Z" stroke="#D4A843" stroke-width="2" fill="#0A0A0F"/>
  <circle cx="25" cy="28" r="6" stroke="#D4A843" stroke-width="1.5" fill="#0A0A0F"/>
  <circle cx="25" cy="28" r="2.5" fill="#D4A843"/>
  <circle cx="39" cy="28" r="6" stroke="#D4A843" stroke-width="1.5" fill="#0A0A0F"/>
  <circle cx="39" cy="28" r="2.5" fill="#D4A843"/>
  <path d="M32 33L29 37L32 36L35 37L32 33Z" fill="#D4A843"/>
  <path d="M32 14C22 14 16 22 16 30C16 38 22 46 32 50C42 46 48 38 48 30C48 22 42 14 32 14Z" stroke="#D4A843" stroke-width="1.2" fill="none"/>
</svg>
